# xmcd
#
# Track frame offsets: 
#        150
#        17201
#        30251
#        42842
#        48843
#        63244
#        72250
#        86004
#        95699
#        111308
#        127405
#        139675
#        156486
#        178606
#        200136
#        212997
#        230944
#        250603
#        274172
#        283188
#        303784
#        317912
#        329696
#
# Disc length: 4611 seconds
#
# Revision: 0
# Processed by: cddbd v1.5.2PL0 Copyright (c) Steve Scherf et al.
# Submitted via: ExactAudioCopy v1.0b1
#
DISCID=66120117
DTITLE=Stefan Engels - Karg-Elert: Complete organ works vol. 9
DYEAR=2011
DGENRE=Organ
TTITLE0=Aus meines Herzens Grunde, organ     W 49 
TTITLE1=Choral-Improvisationen (66), organ   No. 1 - Ach bleib bei dei
TTITLE1=ner Gnade  Op. 65 
TTITLE2=Choral-Improvisationen (66), organ   No. 2 - Aus meines Herzen
TTITLE2=s Grunde  Op. 65 
TTITLE3=Choral-Improvisationen (66), organ   No. 3 - Alles ist an Gott
TTITLE3=es Segen  Op. 65 
TTITLE4=Choral-Improvisationen (66), organ   No. 4 - Es ist das Heil u
TTITLE4=ns kommen her  Op. 65 
TTITLE5=Choral-Improvisationen (66), organ   No. 5 - Freu dich sehr, o
TTITLE5=meine Seele  Op. 65
TTITLE6=Choral-Improvisationen (66), organ   No. 6 - Gelobet seist du,
TTITLE6=Jesu Christ  Op. 65 
TTITLE7=Choral-Improvisationen (66), organ   No. 7 - Lobt Gott, ihr Ch
TTITLE7=risten allzu gleich  Op. 65
TTITLE8=Choral-Improvisationen (66), organ   No. 8 - Mach hoch die Tür
TTITLE8=(Fling wide the gates)  Op. 65 
TTITLE9=Choral-Improvisationen (66), organ   No. 9 - Mit Ernst, o Mens
TTITLE9=chenkinder (Von Gott will ich nicht lassen)  Op. 65
TTITLE10=Choral-Improvisationen (66), organ   No. 10 - Vom Himmel hoch
TTITLE10=(Dies ist der Tag, den Gott gemacht)  Op. 65 
TTITLE11=Choral-Improvisationen (66), organ   No. 11 - Valet will ich 
TTITLE11=dir geben (Wie soll ich dich empfangen)  Op. 65 
TTITLE12=Choral-Improvisationen (66), organ   No. 12 - An Wasserflüsse
TTITLE12=n Babylon  Op. 65 
TTITLE13=Choral-Improvisationen (66), organ   No. 13 - Herr Jesu Chris
TTITLE13=t, dich zu uns wend’  Op. 65
TTITLE14=Choral-Improvisationen (66), organ   No. 14 - Herr und Ältste
TTITLE14=r deiner Kreuzgemeinde  Op. 65 
TTITLE15=Choral-Improvisationen (66), organ   No. 15 - Herzlich lieb h
TTITLE15=ab ich dich, o Herr  Op. 65 
TTITLE16=Choral-Improvisationen (66), organ   No. 16 - Herzlich tut mi
TTITLE16=ch verlangen  Op. 65 
TTITLE17=Choral-Improvisationen (66), organ   No. 17 - Herzliebster Je
TTITLE17=su, was hast du verbrochen  Op. 65 
TTITLE18=Choral-Improvisationen (66), organ   No. 18 - Ich will dich l
TTITLE18=ieben, meine Stärke  Op. 65 
TTITLE19=Choral-Improvisationen (66), organ   No. 19 - Ich dank dir sc
TTITLE19=hon durch deinen Sohn  Op. 65 
TTITLE20=Choral-Improvisationen (66), organ   No. 20 - O Lamm Gottes, 
TTITLE20=unschuldig  Op. 65 
TTITLE21=Choral-Improvisationen (66), organ   No. 21 - O Welt, ich mus
TTITLE21=s dich lassen  Op. 65
TTITLE22=Choral-Improvisationen (66), organ   No. 22 - Sollt ich meine
TTITLE22=m Gott nicht singen?  Op. 65 
EXTD=
EXTT0=
EXTT1=
EXTT2=
EXTT3=
EXTT4=
EXTT5=
EXTT6=
EXTT7=
EXTT8=
EXTT9=
EXTT10=
EXTT11=
EXTT12=
EXTT13=
EXTT14=
EXTT15=
EXTT16=
EXTT17=
EXTT18=
EXTT19=
EXTT20=
EXTT21=
EXTT22=
PLAYORDER=
